<?xml version="1.0" encoding="UTF-8" standalone="no"?>
<svg
   viewBox="0 0 512 512"
   version="1.1"
   id="svg4"
   sodipodi:docname="appicon.svg"
   inkscape:version="1.2.1 (9c6d41e410, 2022-07-14)"
   xmlns:inkscape="http://www.inkscape.org/namespaces/inkscape"
   xmlns:sodipodi="http://sodipodi.sourceforge.net/DTD/sodipodi-0.dtd"
   xmlns="http://www.w3.org/2000/svg"
   xmlns:svg="http://www.w3.org/2000/svg">
  <defs
     id="defs8" />
  <sodipodi:namedview
     id="namedview6"
     pagecolor="#ffffff"
     bordercolor="#000000"
     borderopacity="0.25"
     inkscape:showpageshadow="2"
     inkscape:pageopacity="0.0"
     inkscape:pagecheckerboard="0"
     inkscape:deskcolor="#d1d1d1"
     showgrid="false"
     inkscape:zoom="1.5898437"
     inkscape:cx="166.36855"
     inkscape:cy="238.07371"
     inkscape:window-width="1920"
     inkscape:window-height="1001"
     inkscape:window-x="-9"
     inkscape:window-y="-9"
     inkscape:window-maximized="1"
     inkscape:current-layer="svg4" />
  <!--! Font Awesome Pro 6.2.0 by @fontawesome - https://fontawesome.com License - https://fontawesome.com/license (Commercial License) Copyright 2022 Fonticons, Inc. -->
  <path
     d="M169.7 .9c-22.8-1.6-41.9 14-47.5 34.7L110.4 80c.5 0 1.1 0 1.6 0c176.7 0 320 143.3 320 320c0 .5 0 1.1 0 1.6l44.4-11.8c20.8-5.5 36.3-24.7 34.7-47.5C498.5 159.5 352.5 13.5 169.7 .9zM399.8 410.2c.1-3.4 .2-6.8 .2-10.2c0-159.1-128.9-288-288-288c-3.4 0-6.8 .1-10.2 .2L.5 491.9c-1.5 5.5 .1 11.4 4.1 15.4s9.9 5.6 15.4 4.1L399.8 410.2zM176 272c-17.7 0-32-14.3-32-32s14.3-32 32-32s32 14.3 32 32s-14.3 32-32 32zm128 64c0 17.7-14.3 32-32 32s-32-14.3-32-32s14.3-32 32-32s32 14.3 32 32zM160 384c0 17.7-14.3 32-32 32s-32-14.3-32-32s14.3-32 32-32s32 14.3 32 32z"
     id="path2"
     style="fill:#ffffff;fill-opacity:1" />
</svg>
