<?xml version="1.0" encoding="UTF-8" standalone="no"?>
<svg
   viewBox="0 0 512 512"
   version="1.1"
   id="svg4"
   sodipodi:docname="appicon.svg"
   inkscape:version="1.2.1 (9c6d41e410, 2022-07-14)"
   xmlns:inkscape="http://www.inkscape.org/namespaces/inkscape"
   xmlns:sodipodi="http://sodipodi.sourceforge.net/DTD/sodipodi-0.dtd"
   xmlns="http://www.w3.org/2000/svg"
   xmlns:svg="http://www.w3.org/2000/svg">
  <defs
     id="defs8" />
  <sodipodi:namedview
     id="namedview6"
     pagecolor="#ffffff"
     bordercolor="#000000"
     borderopacity="0.25"
     inkscape:showpageshadow="2"
     inkscape:pageopacity="0.0"
     inkscape:pagecheckerboard="0"
     inkscape:deskcolor="#d1d1d1"
     showgrid="true"
     inkscape:zoom="1.1241893"
     inkscape:cx="106.74359"
     inkscape:cy="243.28644"
     inkscape:window-width="1920"
     inkscape:window-height="1001"
     inkscape:window-x="-9"
     inkscape:window-y="-9"
     inkscape:window-maximized="1"
     inkscape:current-layer="svg4">
    <inkscape:grid
       type="xygrid"
       id="grid5485" />
  </sodipodi:namedview>
  <!--! Font Awesome Pro 6.2.0 by @fontawesome - https://fontawesome.com License - https://fontawesome.com/license (Commercial License) Copyright 2022 Fonticons, Inc. -->
  <path
     d="m 223.00669,120.05519 c -11.14875,-0.78237 -20.48829,6.84572 -23.22656,16.96767 l -5.76997,21.71065 c 0.2445,0 0.53793,0 0.78238,0 86.40277,0 156.47365,70.07087 156.47365,156.47365 0,0.24446 0,0.53787 0,0.78238 l 21.71066,-5.76997 C 383.14772,307.53016 390.72683,298.14176 389.9445,286.993 383.78332,197.60743 312.39225,126.21637 223.00669,120.05519 Z m 112.51435,200.13957 c 0.0487,-1.66253 0.0978,-3.32506 0.0978,-4.9876 0,-77.79674 -63.02955,-140.82629 -140.8263,-140.82629 -1.66255,0 -3.32507,0.0489 -4.98761,0.0978 l -49.53365,185.66577 c -0.73351,2.68936 0.0487,5.57439 2.00476,7.53029 1.95594,1.9559 4.84094,2.73833 7.53034,2.00483 z M 226.08721,252.6177 c -8.6549,0 -15.64732,-6.99241 -15.64732,-15.64736 0,-8.65495 6.99242,-15.64732 15.64732,-15.64732 8.65501,0 15.64742,6.99237 15.64742,15.64732 0,8.65495 -6.99241,15.64736 -15.64742,15.64736 z m 62.58946,31.29468 c 0,8.65501 -6.99241,15.64742 -15.64731,15.64742 -8.65496,0 -15.64736,-6.99241 -15.64736,-15.64742 0,-8.6549 6.9924,-15.64731 15.64736,-15.64731 8.6549,0 15.64731,6.99241 15.64731,15.64731 z m -70.41305,23.47108 c 0,8.655 -6.99243,15.64736 -15.64738,15.64736 -8.655,0 -15.64736,-6.99236 -15.64736,-15.64736 0,-8.65494 6.99236,-15.64737 15.64736,-15.64737 8.65495,0 15.64738,6.99243 15.64738,15.64737 z"
     id="path2"
     style="fill:#ffffff;fill-opacity:1;stroke-width:0.488981" />
</svg>
